<svg xmlns="http://www.w3.org/2000/svg" width="500" height="400" viewBox="0 0 500 400"><rect width="100%" height="100%" fill="#8FA0DC"/><path fill="#31343C" d="M241.73 198.225v48.79q-5.77 7.64-17.99 13.59-12.22 5.96-30.88 5.96-23.73 0-38.75-14.76-15.02-14.75-15.02-38.3v-27.01q0-23.46 14.44-38.26 14.44-14.8 37.19-14.8 23.64 0 36.22 11.51 12.57 11.51 12.84 30.26l-.18.53h-24.44q-.71-10.3-6.57-16.3-5.87-6-17.15-6-11.91 0-19.2 9.2-7.29 9.19-7.29 23.68v27.19q0 14.75 7.56 23.95 7.55 9.2 20.35 9.2 9.06 0 14.57-1.87 5.51-1.86 8.35-4.62v-23.99h-22.92v-17.95h48.87Zm72.16 66.47h-49.85v-129.39h43.72q22.84 0 35.64 8.89 12.8 8.88 12.8 26.57 0 8.97-4.76 16.04-4.75 7.06-13.82 10.62 11.64 2.49 17.46 10.66 5.83 8.18 5.83 18.93 0 18.57-12.27 28.13-12.26 9.55-34.75 9.55Zm1.96-57.23h-25.86v37.32h23.9q10.31 0 15.73-4.48 5.42-4.49 5.42-13.29 0-9.51-4.62-14.53t-14.57-5.02Zm-25.86-52.17v34.22h18.66q10.4 0 16-4.27 5.6-4.26 5.6-12.44 0-8.97-5.65-13.24-5.64-4.27-16.84-4.27h-17.77Z"/></svg>